<?xml version="1.0" encoding="UTF-8" standalone="no"?><!DOCTYPE svg PUBLIC "-//W3C//DTD SVG 1.1//EN" "http://www.w3.org/Graphics/SVG/1.1/DTD/svg11.dtd"><!-- Generated by graphviz version 2.40.1 (20161225.0304)
 --><!-- Title: PathlibInheritance Pages: 1 --><svg xmlns="http://www.w3.org/2000/svg" xmlns:xlink="http://www.w3.org/1999/xlink" width="416pt" height="188pt" viewBox="0.00 0.00 415.99 188.00">
<g id="graph0" class="graph" transform="scale(1 1) rotate(0) translate(4 184)">
<title>PathlibInheritance</title>
<polygon fill="#ffffff" stroke="transparent" points="-4,4 -4,-184 411.988,-184 411.988,4 -4,4"/>
<!-- PurePath -->
<g id="node1" class="node">
<title>PurePath</title>
<polygon fill="#ffffff" stroke="#000000" points="236.9935,-180 164.9935,-180 164.9935,-144 236.9935,-144 236.9935,-180"/>
<text text-anchor="middle" x="200.9935" y="-159" font-family="Courier,monospace" font-size="10.00" fill="#000000">PurePath</text>
</g>
<!-- PurePosixPath -->
<g id="node2" class="node">
<title>PurePosixPath</title>
<polygon fill="none" stroke="#c0c0c0" points="93.9805,-108 .0065,-108 .0065,-72 93.9805,-72 93.9805,-108"/>
<text text-anchor="middle" x="46.9935" y="-87" font-family="Courier,monospace" font-size="10.00" fill="#c0c0c0">PurePosixPath</text>
</g>
<!-- PurePosixPath&#45;&gt;PurePath -->
<g id="edge1" class="edge">
<title>PurePosixPath-&gt;PurePath</title>
<path fill="none" stroke="#c0c0c0" d="M85.8542,-108.1686C107.0609,-118.0835 133.4313,-130.4125 155.5824,-140.7688"/>
<polygon fill="#c0c0c0" stroke="#c0c0c0" points="154.2488,-144.0089 164.79,-145.0737 157.2136,-137.6678 154.2488,-144.0089"/>
</g>
<!-- PureWindowsPath -->
<g id="node3" class="node">
<title>PureWindowsPath</title>
<polygon fill="none" stroke="#c0c0c0" points="307.9785,-108 202.0085,-108 202.0085,-72 307.9785,-72 307.9785,-108"/>
<text text-anchor="middle" x="254.9935" y="-87" font-family="Courier,monospace" font-size="10.00" fill="#c0c0c0">PureWindowsPath</text>
</g>
<!-- PureWindowsPath&#45;&gt;PurePath -->
<g id="edge2" class="edge">
<title>PureWindowsPath-&gt;PurePath</title>
<path fill="none" stroke="#c0c0c0" d="M241.367,-108.1686C235.1475,-116.4614 227.6613,-126.443 220.8335,-135.5467"/>
<polygon fill="#c0c0c0" stroke="#c0c0c0" points="218.0035,-133.4867 214.8035,-143.5867 223.6035,-137.6867 218.0035,-133.4867"/>
</g>
<!-- PureGCSPath -->
<g id="node4" class="node">
<title>PureGCSPath</title>
<polygon fill="#add8e6" stroke="#000000" points="407.9825,-108 326.0045,-108 326.0045,-72 407.9825,-72 407.9825,-108"/>
<text text-anchor="middle" x="366.9935" y="-87" font-family="Courier,monospace" font-size="10.00" fill="#000000">PureGCSPath</text>
</g>
<!-- PureGCSPath&#45;&gt;PurePath -->
<g id="edge3" class="edge">
<title>PureGCSPath-&gt;PurePath</title>
<path fill="none" stroke="#000000" d="M325.9598,-107.7978C301.7816,-118.2847 271.156,-131.5681 246.2744,-142.3601"/>
<polygon fill="#000000" stroke="#000000" points="244.8265,-139.173 237.045,-146.3632 247.6119,-145.5949 244.8265,-139.173"/>
</g>
<!-- Path -->
<g id="node5" class="node">
<title>Path</title>
<polygon fill="none" stroke="#c0c0c0" points="183.9935,-108 111.9935,-108 111.9935,-72 183.9935,-72 183.9935,-108"/>
<text text-anchor="middle" x="147.9935" y="-87" font-family="Courier,monospace" font-size="10.00" fill="#c0c0c0">Path</text>
</g>
<!-- Path&#45;&gt;PurePath -->
<g id="edge4" class="edge">
<title>Path-&gt;PurePath</title>
<path fill="none" stroke="#c0c0c0" d="M161.3676,-108.1686C167.4097,-116.3768 174.6698,-126.2394 181.3156,-135.2677"/>
<polygon fill="#c0c0c0" stroke="#c0c0c0" points="178.6924,-137.6082 187.4393,-143.5867 184.3298,-133.4585 178.6924,-137.6082"/>
</g>
<!-- PosixPath -->
<g id="node6" class="node">
<title>PosixPath</title>
<polygon fill="none" stroke="#c0c0c0" points="134.9935,-36 62.9935,-36 62.9935,0 134.9935,0 134.9935,-36"/>
<text text-anchor="middle" x="98.9935" y="-15" font-family="Courier,monospace" font-size="10.00" fill="#c0c0c0">PosixPath</text>
</g>
<!-- PosixPath&#45;&gt;PurePosixPath -->
<g id="edge5" class="edge">
<title>PosixPath-&gt;PurePosixPath</title>
<path fill="none" stroke="#c0c0c0" d="M85.8717,-36.1686C79.9436,-44.3768 72.8206,-54.2394 66.3002,-63.2677"/>
<polygon fill="#c0c0c0" stroke="#c0c0c0" points="63.3095,-61.4307 60.292,-71.5867 68.9843,-65.5292 63.3095,-61.4307"/>
</g>
<!-- PosixPath&#45;&gt;Path -->
<g id="edge6" class="edge">
<title>PosixPath-&gt;Path</title>
<path fill="none" stroke="#c0c0c0" d="M111.3583,-36.1686C116.9444,-44.3768 123.6565,-54.2394 129.8007,-63.2677"/>
<polygon fill="#c0c0c0" stroke="#c0c0c0" points="126.9425,-65.2888 135.4622,-71.5867 132.7295,-61.3504 126.9425,-65.2888"/>
</g>
<!-- WindowsPath -->
<g id="node7" class="node">
<title>WindowsPath</title>
<polygon fill="none" stroke="#c0c0c0" points="237.9825,-36 156.0045,-36 156.0045,0 237.9825,0 237.9825,-36"/>
<text text-anchor="middle" x="196.9935" y="-15" font-family="Courier,monospace" font-size="10.00" fill="#c0c0c0">WindowsPath</text>
</g>
<!-- WindowsPath&#45;&gt;PureWindowsPath -->
<g id="edge7" class="edge">
<title>WindowsPath-&gt;PureWindowsPath</title>
<path fill="none" stroke="#c0c0c0" d="M211.6293,-36.1686C218.3096,-44.4614 226.3503,-54.443 233.6839,-63.5467"/>
<polygon fill="#c0c0c0" stroke="#c0c0c0" points="231.1616,-65.9948 240.1606,-71.5867 236.6129,-61.6035 231.1616,-65.9948"/>
</g>
<!-- WindowsPath&#45;&gt;Path -->
<g id="edge8" class="edge">
<title>WindowsPath-&gt;Path</title>
<path fill="none" stroke="#c0c0c0" d="M184.6287,-36.1686C179.0426,-44.3768 172.3305,-54.2394 166.1863,-63.2677"/>
<polygon fill="#c0c0c0" stroke="#c0c0c0" points="163.2575,-61.3504 160.5248,-71.5867 169.0445,-65.2888 163.2575,-61.3504"/>
</g>
</g>
</svg>